<svg id="Layer_1" data-name="Layer 1" xmlns="http://www.w3.org/2000/svg" viewBox="0 0 610 685.65"><defs><style>.cls-1,.cls-6{fill:#231f20;}.cls-2,.cls-5{fill:#fff;}.cls-3{fill:#939598;}.cls-4{fill:none;}.cls-5{stroke:#231f20;stroke-linecap:round;stroke-linejoin:round;stroke-width:7px;}.cls-6{font-size:42px;font-family:NHaasGroteskDSPro-95Blk, Neue Haas Grotesk Display Pro;}</style></defs><title>Artboard 1</title><path class="cls-1" d="M580,367.6c-10.23-9.42-23.37-11.4-32.6-11.4a62.72,62.72,0,0,0-21,3.55,109,109,0,0,0-13.48,5.72,94.51,94.51,0,0,0-12.26-20.23l1.57-3.2-4.26-3.33-.09-.07c-1.32-1-8.05-6.34-11.22-9.18-12.71-11.39-28.6-20-40.36-25.43,13.27-6.36,23.15-15.69,27.15-25.91,5-12.91,4.6-24.13-1.39-35.31a31.89,31.89,0,0,0-5.68-7.6A187.93,187.93,0,0,0,459,206.44c4.28-6.17,10.19-16.9,10.33-29.18.11-9.64-3.79-18.32-11.59-25.78A36.74,36.74,0,0,0,431.48,141a51,51,0,0,0-15.18,2.46,113.79,113.79,0,0,0-10.88,4c-10.34-4.44-22-8.58-39-8.58h-1a70.78,70.78,0,0,0-35.23,9.24,56.9,56.9,0,0,0-12.44-2.37c-12.18-.89-22,3-28,11.19-12.16,16.49-6.78,33.59,2.06,44.08a156.75,156.75,0,0,0-6.6,32.21c-3.95,4.73-16.56,22.28-7.71,44.47,7.31,18.32,19.31,25.32,25.38,27.79a62.69,62.69,0,0,0,7.9,10.3c-8,7.58-15.64,16.41-19.78,22.81l-.86,1.43L288.45,343a29.76,29.76,0,0,0-5.83-3.08c-1.08-.42-2.14-.81-3.16-1.18a32.13,32.13,0,0,0,2.21-18.44c3.32-6.35,7.47-16.79,3.81-24.25-1.12-2.29-4-6.24-10.57-7.05a17.48,17.48,0,0,0-9,1.08c-.17-.45-.35-.9-.53-1.34-1.44-3.59-5.82-14.52-14.88-14.52l-.9,0a11.75,11.75,0,0,0-8.43,4.56c-2.69,3.45-3.37,7.92-3.37,11.57a18.43,18.43,0,0,0-4.43-2.12,13.34,13.34,0,0,0-10.43.92,12.71,12.71,0,0,0-6.75,8.88c-.84,4.43.79,8.74,2.56,11.88a22.65,22.65,0,0,0-6.27-1,10.68,10.68,0,0,0-8.49,3.54,14,14,0,0,0-3.51,11c.9,6.79,6.58,11.39,8.52,12.77l9.48,7.8C220,350,224.79,363.56,239.78,369c.71,1.59,1.56,3.39,2.55,5.37,6.63,13.36,15.78,23.2,26.44,28.46,6,3,15.38,6.52,25.54,6.52.69,0,1.38,0,2.06-.05-1.38,16.82-.62,32.35,2.27,46.23,1.09,5.19,2.17,13.22,2.18,13.3l.5,3.8,5.05,2.17,0,.13,2.12.8.39.15.65,1.13a58.11,58.11,0,0,0,16.17,25.76,253.08,253.08,0,0,0,7.43,31.93l.19.64c4.14,13.69,7.11,23.5,11.08,31.67-12-3-23.61-3.16-33.95-.51-21.59,5.53-34.33,14.81-37.88,27.58-4.39,15.8,7.09,30.53,11.2,35.15,3.61,6,10,10,19.11,11.87a64.6,64.6,0,0,0,12.6,1.2c.93,0,1.76,0,2.45,0,7.14,4.26,16.3,4.33,26.57.21a70,70,0,0,0,14.52-8.2c3-.39,8.35-1.16,15.93-2.51,13.74-2.44,23.49-5.59,29.66-9.61l32.95,15.74c3,2.56,14.05,11.75,23.1,16.41a43.53,43.53,0,0,0,19.63,5.14,28.85,28.85,0,0,0,10.15-1.74A23,23,0,0,0,503.83,645c5.92-1.81,10.56-4.47,13.89-7.92l.22.16,2.33-3.23a46.7,46.7,0,0,0,6.82-16.34c2.47-12.51-1.57-23.38-11.69-31.42-7.95-6.33-19.57-9.54-34.51-9.54a130.93,130.93,0,0,0-19.4,1.57c9.82-18.37,13.69-36.09,16.17-52.7,18.64-9.4,44.79-24.44,64.51-39.6,10.35-8,22.55-21.64,31.83-35.7,8.18-12.41,18.11-31.06,18.93-49.47C593.53,387.23,589.17,376.06,580,367.6Z"/><path class="cls-2" d="M478.24,467.16l-.13,0c.3,0,.6.06.89.07Z"/><path class="cls-2" d="M482.14,334.46c-11.3-10.11-26.09-17.79-39.94-23.4l-6.9-2.15-9.15-3.66-17.22,3.21-3,4.61c-1,2-2.28,4.17-3.75,6.49l3-7L400,314.52l-8.46,3.91L381.4,323l-4.78,5.1-9.14,6.31-5.85-.57-4-1.7-3.4-2.75-11.37-1.32,2.12,6.09,5.53,6.38,7.75,4.25,12-.64,9-2.62a38.45,38.45,0,0,1-18.32,3.91c-12.65-.42-17.56-10.34-19.3-19L320.9,316.29c-8.22,6.91-18.68,17.43-24.2,26-.15.23-.72,1.2-.72,1.2l2.64,1.41-.43.57.43,0c2.93.41,11.11,3.27,15.73,9.25l-.06.51c-7,23.15-16.36,64-9.07,98.91,1.16,5.56,2.25,13.79,2.25,13.79l3.42,1.51c15.32,5.81,82.26,21.61,167.22-2.26a23.86,23.86,0,0,1-12.9-5.26c-7.49-6.15-7.22-14.07-5.77-19.47l-.34-1.08c-6.84-26.65,6.07-48.75,9.73-54.3l.05-.25c-2.53-1.92-5-4-7.45-6.23l.17-.74c19-10.66,28.25-28.33,30.65-33.54l.29.11,1.21-2.47S485.83,337.77,482.14,334.46Zm-93.15.63,4.63-5.68,6-6A66.06,66.06,0,0,1,389,335.09Z"/><path class="cls-1" d="M478.24,498.22l-.79-5.37a70.24,70.24,0,0,1,9.79-.56c2.75,0,2.75,5.4,2.75,5.4h-.8A92,92,0,0,0,478.24,498.22Z"/><path class="cls-3" d="M356.29,328.79c2.85,3.68,6.62,7.1,10.26,6,4.47-1.36,9.16-6.89,12.11-10.93Z"/><path class="cls-1" d="M386,321.74c-5.51,7.49-13.37,15.12-21.67,15.12q-.5,0-1,0c-5.46-.33-10.07-3.84-12.82-8.51l5.53-.67c1.52,2.33,4,3.55,7.62,3.76,5.29.32,10.18-3.41,14.05-7.81Z"/><path class="cls-2" d="M452.27,370c8.57-5.77,23.51-17.54,32-34.11l8.94,8.34L485.51,358l-10,13.14L463,380.78Z"/><path class="cls-2" d="M314.35,354.74c-4.4-5.69-12-8.56-15.27-9.18l-.46-.67L296,343.48s.57-1,.72-1.2c1.37-2.12,2.85-4.17,4.42-6.14h.82c2.87.38,11.13,3.24,15.78,9.26Z"/><path class="cls-1" d="M412.25,308.05a144.29,144.29,0,0,1-12.14,19.22c-10.65,13.72-23.73,20.92-37.91,20.92-.47,0-.94,0-1.41,0-11.57-.38-19.6-10-22.45-22l6,1.49c2.13,8.84,7.69,14.76,16.63,15.06,22.06.73,35.85-18.52,42.15-30.16Z"/><polygon class="cls-3" points="372.86 391.09 370.93 422.24 387.04 422.24 387.59 390.91 372.86 391.09"/><polygon class="cls-1" points="317.96 418.03 328.36 418.45 330.92 369 318.25 369.07 317.96 418.03"/><polygon class="cls-1" points="334.58 403.76 346.59 404.09 348.42 370.57 335.27 370.13 334.58 403.76"/><polygon class="cls-1" points="350.63 420.77 363.01 422.04 365.81 369.62 352.38 368.75 350.63 420.77"/><polygon class="cls-1" points="372.42 369.27 372.07 384.22 389.09 384.29 388.78 369.06 372.42 369.27"/><path class="cls-1" d="M428.77,367l-35.95,1.07L394,381.35s34.48,2.89,35.17,2.72S428.77,367,428.77,367Z"/><polygon class="cls-1" points="396.94 389.52 394.78 423.16 410.33 424.47 409.21 389.52 396.94 389.52"/><path class="cls-3" d="M575.44,372.54c-14.2-13.08-36.82-10.22-46.84-6.47a120.71,120.71,0,0,0-19.67,9.1c0-.47,0-.74,0-.74s-2.57-11.35-14.71-26.42a20.59,20.59,0,0,0-1.57-1.46l-.5,0c-2.54,5.44-11.76,22.81-30.56,33.34l-.4.53c2.44,2.23,5,4.37,7.53,6.33l.27.11c-3.25,4.84-15.53,25.31-10.77,50.56l.47,16.19,1.15,1.23a17.68,17.68,0,0,0,5.36,7.12,23.65,23.65,0,0,0,3.49,2.37l3.3,3.54-14.31,3.24v1.19c-70.24,15.22-125.18,4.17-143.51-1.69l-.49.39,1.86,3.22A51.12,51.12,0,0,0,332,499.47l.13.8c1.64,10.69,9.26,52.89,30.41,80.61l-.29-.13c-8.34-4.22-29.31-13.07-50.11-7.74-50.65,13-31.24,42.15-24.41,50.48l.95,1.13c6.21,13,30.93,10.82,30.93,10.82l.66.33c14,10,36-7.78,36-7.78l.68-.5c11.36-1.16,38.51-4.77,46.88-13.19l37.5,17.91s12.81,11.14,22.48,16.12c14,7.21,29.14,5.9,34.13-6.54a19.58,19.58,0,0,0,.74-2.15l1.37-.55c4.7-1.22,10.69-3.59,14.1-8.11l.72-.9s16.31-22.77-3.59-38.6c-18.33-14.57-57-5.25-63-3.67h-.83c13.81-21.51,20.72-45.69,24.06-66.64,17.75-8.73,46.18-24.77,66.66-40.52C562.45,461.9,606.82,401.43,575.44,372.54Z"/><path class="cls-3" d="M303.6,401.31a134,134,0,0,0,3.07-14.88c1.09-7.71,6.51-26.82,6.51-26.82l.55-7.06-11.19-5.32-5.21-.43c-1.18,2-2.43,3.81-3.42,5.89l-.47.37c-8.25-5.68-17.67-8.67-23.51-10.09l-.15-.53c8.84-12.59,4.72-23,4.72-23s13.11-22.07-.41-23.72c-6.39-.79-9.59,2.92-11.19,7l-.36-.73s-4.77-21.64-12.35-21c-5.35.42-6.28,7.69-5.27,13.57s2.33,17.77,2.33,17.77-11.46-22.37-21.08-17.2c-8.15,4.38.71,14.8.71,14.8l4.53,13.39-.09.22c-3.51-2.24-18.27-11.19-22.2-6.64-6.17,7.15,4,14.05,4,14.05l11.53,9.5s2.31,18.29,19.68,23l.61.18c3.83,10.11,11.93,25.89,26.8,33.22C287.07,404.36,298.05,403,303.6,401.31Z"/><path class="cls-3" d="M303.5,193.64a143.93,143.93,0,0,0-10.45,41.25l.37.87a26.2,26.2,0,0,1,9,.26l.79-.5a175.81,175.81,0,0,1,28.65.2l.36,0,8.4,1.29s18.07-4.31,47.76-1.93,36.4,5.49,36.4,5.49l.9-.07c7.43-2.12,16.41-5.53,25.29-3,3,.84,8,.69,7.71-2.41-.45-5.53-.56-13.42-3.62-24a66.77,66.77,0,0,0-3.27-8.75c6.67-10.45,16-30.32,2.3-44.9-15.06-16.06-36.46-7.79-46.94-2.13a82.16,82.16,0,0,0-15.2-5.68c-8.72-2.3-11.93-4-23.49-3.86-15.07.18-27.16,4.51-36.84,11.18a26.18,26.18,0,0,0,.38-2.85s-24.18-10.39-35.76,4.68C281,178.72,299,196.52,299,196.52S300.78,195.47,303.5,193.64Z"/><path class="cls-2" d="M304.5,185.74c-.26-.08-.4-.14-.4-.14s-5.61-6,.9-15.92c5.65-8.56,12.68-6,13.9-5.43Z"/><path class="cls-2" d="M420.33,238.42s12.15-9.85,25.88-6.83c15,3.29,30.55,17.11,19.53,45.31-10.07,25.78-52.33,29.52-52.33,29.52l-2.17-.1c-14.41,10.56-37.44,23.56-61.54,21.57-26-2.15-38.81-21.44-42.23-27.51l-.09-.18c-3.5-1.06-16.3-6.12-23.78-24.88-8.73-21.88,7.47-38.82,7.47-38.82l5.16.27,21.28,1.61L352.4,235l34.06-.22,27,1.24Z"/><path class="cls-2" d="M395.29,234.3l-1-.08a260.45,260.45,0,0,0-39.45-.46v.05s2.39-42,23.7-39.58c18,2.06,16.77,40.11,16.77,40.11Z"/><path class="cls-2" d="M332.38,234.41l-.73-.06a137.9,137.9,0,0,0-28.44.18v0s2.35-41,17.68-39c13,1.72,11.48,38.85,11.48,38.85Z"/><path class="cls-2" d="M438.5,191c-4.14-10.55-11.11-16.87-16.69-21.09l1.44-1.13s13.56-9.38,21.91-1.61c8.84,8.23-4.08,20.68-4.08,20.68Z"/><path class="cls-4" d="M406,155.07c24.49,10.86,37.68,30.75,44.79,48.67"/><path class="cls-2" d="M320.9,267.08a38.2,38.2,0,0,0-5,3.48,123,123,0,0,0,3.1,19.92,60.71,60.71,0,0,0,4.74,12l16,.24c1.57-3.13,5.22-13.06,6.66-30.48C341,270.39,328.55,266.53,320.9,267.08Z"/><path class="cls-1" d="M308.9,189.6l5.73.83c0-.07,1.5-6.16,7.25-7.17,5.08-.88,7.28,1,8.64,3.24a10.05,10.05,0,0,1,1.34,3.93l3.41-.21a14.16,14.16,0,0,0-1.88-5.74c-2.35-4-6.48-6.16-11.64-6.14C313.2,178.38,309.61,185.72,308.9,189.6Z"/><path class="cls-1" d="M375.25,180.21c12,.28,18.54,10,18.64,10.36l4.26.23c-1.14-4.29-9.1-15.19-22.88-15.51-13.59-.31-19,8.3-20,12.89l6.29.93C361.65,188.74,363.65,180,375.25,180.21Z"/><path class="cls-1" d="M430.27,167.48c5.68-2.26,9.72-2.09,12,.51,8,9.15-5.14,22.73-5.27,22.86l3.85,3.82c5.88-5.94,14.59-19.91,5.5-30.26s-27.32,3-28.09,3.54l3.22,4.36A44.8,44.8,0,0,1,430.27,167.48Z"/><path class="cls-1" d="M468.49,244.69a28.28,28.28,0,0,0-5.9-7.52,178.22,178.22,0,0,0-8.09-31.36c4.25-5.72,10.66-16.4,10.8-28.6.1-8.49-3.38-16.17-10.35-22.84-9.67-9.26-22.62-11.7-37.46-7.07a108.62,108.62,0,0,0-12.06,4.55c-11.56-5-22.84-9.09-39.95-8.94a66.46,66.46,0,0,0-34.77,9.6,54.35,54.35,0,0,0-13.22-2.75c-10.79-.78-19.27,2.53-24.46,9.58-14.81,20.08.52,37.78,3.35,40.76a150.08,150.08,0,0,0-7.23,34.79c-1.63,1.76-16.79,19-7.87,41.36,7.31,18.34,19.48,24.31,24.38,26,4.11,7.11,17.38,25.93,43.83,28.11.57.05,1.16.08,1.77.12,11.82.61,30.15-1.94,53-16.4q2.25-1.43,4.21-3a244.93,244.93,0,0,0,28.14-7.45c16.18-5.69,28.65-15.79,33-27C474.75,263.66,473.29,253.67,468.49,244.69Zm-103-96.36c14-.12,24,2.79,33.56,6.72l.92,7.21c.07,0,9.19-6.72,19.23-9.83,13-4,23.72-2,32,5.85,5.83,5.59,8.75,11.93,8.68,18.84-.17,15.44-17.34,31.55-17.49,31.69l7.88,1.31a123.81,123.81,0,0,1,5.25,22.16,36.47,36.47,0,0,0-8.78-3.14c-12.12-2.66-22.86,3.72-26.6,6.31a174.12,174.12,0,0,0-21-2.82c-.19-8.73-2.18-39-20.61-40.79a17,17,0,0,0-12.79,3.84c-10.66,8.67-13,30-13.54,36.86-5.23.6-9,1.28-11.24,1.74a34.49,34.49,0,0,0-5.59-2.35c-.19-10.47-1.94-36.13-14.39-37.48-3.45-.37-6.53.9-9.22,3.74-8,8.49-10.08,29.66-10.54,36.42a28.43,28.43,0,0,0-6.56,0,144.9,144.9,0,0,1,10.58-42.38C317.73,163.36,338,148.59,365.53,148.33ZM382.44,219c5.63-.38,7.69,9.93,8.09,12.3q-7.12-.33-13.69-.36C376.79,228.25,377.05,219.37,382.44,219Zm-13.87,12c-3.36.09-6.61.24-9.7.47.81-8.94,3.75-25.28,11.32-31.44a10.06,10.06,0,0,1,7.15-2.39l.52,0c4.52.43,7.62,4.27,9.74,9-2.11-1.28-4.77-1.62-8.11-.47C371.42,209,369.17,224.45,368.57,231Zm-45.8-.79c.29-3.22,1.21-7.48,4-7.76,1.25-.12,2.25.67,3,1.88h0a20.35,20.35,0,0,1,2.3,6.7,33,33,0,0,0-5.76-.77C325.18,230.24,324,230.22,322.77,230.23Zm-1.87,36.85c7.65-.55,20.1,3.31,25.52,5.15-.1,1.24-.22,2.43-.34,3.59-.39,3.65-.87,6.92-1.4,9.83l-.06.37c-.11.6-.22,1.17-.34,1.73,0,.17-.06.35-.1.52-.11.53-.22,1-.33,1.53l-.12.57c-.11.47-.21.92-.32,1.36l-.15.59q-.15.62-.3,1.2c-.06.2-.11.4-.16.59-.1.37-.2.72-.3,1.07-.06.19-.11.39-.17.58s-.18.63-.28.92l-.18.58c-.08.27-.17.54-.26.8l-.18.54c-.08.23-.16.46-.24.67s-.13.36-.2.53l-.2.55c-.08.18-.14.35-.21.52l-.17.41c-.08.19-.15.36-.23.52l-.11.27c-.11.24-.22.45-.31.64l-16-.24a68.22,68.22,0,0,1-3.89-9.1c-.31-.93-.6-1.9-.85-2.89l-.39-1.57c0-.17-.07-.34-.11-.51l-.24-1.07c0-.2-.09-.4-.13-.6s-.13-.65-.2-1l-.12-.64-.18-.93c0-.22-.07-.43-.11-.64s-.11-.61-.16-.92-.07-.41-.1-.62l-.15-.91-.09-.59c0-.31-.09-.62-.13-.92s0-.36-.08-.53c-.05-.36-.09-.7-.14-1-.4-3.12-.64-5.77-.77-7.46A38.2,38.2,0,0,1,320.9,267.08Zm.54-58.55c-5.4,2.6-7.39,15.64-8.08,22.7a21.12,21.12,0,0,0-5.47,2c-.5,0-1,.09-1.5.15.73-8.86,3.13-24.9,8.75-30.85a6.11,6.11,0,0,1,4.89-2.21l.35,0c2.92.31,5.08,3.61,6.62,8.3C325.54,207.62,323.72,207.43,321.44,208.53Zm-14.55-36.25c2.43-3.83,5.11-5,7.18-5.17a87.11,87.11,0,0,0-9.59,14.25C304.12,179.25,304.42,176.2,306.89,172.28Zm-13,14.08c-3.26-8.2-2.07-16.21,3.53-23.8,7-9.55,20.38-7.87,27.59-6.07a66.6,66.6,0,0,0-6.46,5.72c-4-1.25-11-1-16.22,7.18-5.92,9.36-2.67,15.88-1,18.25-.37.81-.74,1.62-1.09,2.44-.61,1.41-1.19,2.81-1.73,4.2A32.16,32.16,0,0,1,293.87,186.36ZM463.41,276c-7.75,19.86-36.74,26-46.78,27.49a53.43,53.43,0,0,0,7.94-11.61c-.36.36-36.46,36.7-74.67,33.52-29-2.39-41-27.62-41.11-27.88l-.67.31c-2.93-.88-15.06-5.51-22.2-23.42-6.44-16.16,1.59-29.31,5.29-34.17a39.63,39.63,0,0,1,10.9.17,12.28,12.28,0,0,0-.33,1.56c-1.26,8.93,12.64,15.34,16.43,16.92a28.93,28.93,0,0,0,.4,4.7,53.79,53.79,0,0,0-7.5,5.75c0,.28.3,3.52.87,7.73-8.3,4.45-18.55,2.64-18.55,2.64a21.34,21.34,0,0,0,11.11,4c.41,0,.82,0,1.25,0,.49.48,5.7,5.61,9.86,9.85a88.1,88.1,0,0,0,5.5,12.34l.84,1.49,5.15.08c3.15,2.78,7.22,4.26,12.57,4.54.81,0,1.64.06,2.5,0,9.71-.18,17.36-4.9,28.6-14.78a81.35,81.35,0,0,0,12.88-15.17c32.83-2,44.71-14.83,44.71-14.83-22.35,11.31-60.14,11.61-76.09,6.57.12-1.32.23-2.67.32-4.08-.7-.27-16.55-5.95-28-6.69a40,40,0,0,1-.42-6.29c8.72-3.33,23.46-6.33,23.46-6.33s1.52-2,1.35-7.38a7.13,7.13,0,0,0-2.14-4.34c2.37-.37,5.33-.76,8.83-1.09v0a219.83,219.83,0,0,1,22.44-.83c2.8.06,5.71.17,8.77.35,28.36,1.69,38.93,5.07,39,5.09l-.88-4c4.2-2.5,12.14-6.1,20.63-4.23,8.24,1.8,14.95,6.55,18.41,13C468.16,254.68,467.94,264.42,463.41,276Z"/><path class="cls-1" d="M328.26,298.37c-1.49-14.3-2.22-27.89-2.23-28l-2.23.23c0,.11,1.12,13.42,2.63,27.83Z"/><path class="cls-1" d="M577.27,370.54c-14.47-13.32-37.56-11.5-49.58-7a115,115,0,0,0-16.94,7.55c-1.5-4.39-5.41-13.59-14.39-24.75a6.77,6.77,0,0,0-.49-.52l1.29-2.61-1.74-1.36c-.07-.06-7.88-6.17-11.47-9.39-14.15-12.67-34.22-23.23-51.71-30l-11.49,4c17.78,5.84,44.27,16.38,59.58,30.09.35.32.75.67,1.18,1-7.94,14.49-19.95,26.5-27.76,32.14a121.79,121.79,0,0,1-11-13.25l-14.61-9.87c.68,1,19.31,26.56,37.33,41.08-4.73,8.54-15.21,31.51-9.25,56.7-1,6.33.14,13.9,7.25,19.73a26.6,26.6,0,0,0,2.51,1.8c-75.94,19.71-136.36,7.06-156.08.05-.38-2.73-1.19-8.17-2.05-12.28C297.29,402.85,324.72,333.61,325,333l-8.13,7a31.55,31.55,0,0,0-8.31-5.29c-.5-.22-1-.43-1.53-.64a202.53,202.53,0,0,1,16.11-14.76l-4.46-5.12c-9.36,8.11-19.39,19.2-24.24,26.71-.16.25-.78,1.29-.78,1.29l-1.44,2.44,2.5,1.33h0l-.63,1c-.8,1.29-1.62,2.63-2.36,4.09a30.18,30.18,0,0,0-10.55-7.34c-3-1.18-5.45-2-7.34-2.56,5.71-9.88,4.43-18.23,3.61-21.37,2.05-3.71,7.77-15.14,4.45-21.91-.94-1.9-3-4.29-7.47-4.84a12.3,12.3,0,0,0-10.29,3c-.11.1-.2.21-.31.32-.54-1.82-1.25-3.93-2.1-6.05-3.38-8.43-7.22-12.36-11.75-12a7.67,7.67,0,0,0-5.59,3c-3.41,4.37-2.5,11.6-2.14,13.71.28,1.62.59,3.74.88,5.94-3.75-4.78-7.41-7.75-10.89-8.84a9.36,9.36,0,0,0-7.35.62,8.64,8.64,0,0,0-4.71,6.1c-1,5.23,3,10.78,4.3,12.43l2.14,6.34c-6.72-3.58-15.66-7-19.54-2.48A9.87,9.87,0,0,0,204.5,323c.72,5.49,6,9.4,7,10.11l10.67,8.78c.81,4.24,4.79,19.11,20.59,23.9.7,1.67,1.71,3.89,3.17,6.82,6.24,12.57,14.76,21.79,24.63,26.65,5.22,2.57,14.15,6.11,23.77,6.11a35.94,35.94,0,0,0,6.5-.58c-1.68,16-1.71,33.32,1.75,49.94,1.13,5.4,2.21,13.51,2.22,13.59l.21,1.55,4.94,2.13h0l1.72.62h0l1.6,2.77a54.13,54.13,0,0,0,16.21,25.35,247.1,247.1,0,0,0,7.54,32.8c5.92,19.59,9.22,30.63,16.08,40.29-10.75-3.92-26.18-7.4-41.6-3.45-20.1,5.14-31.88,13.47-35,24.77-4,14.36,7.48,28.27,10.59,31.71,2.45,4.29,7.16,8.38,16.68,10.32a59.86,59.86,0,0,0,11.79,1.12c1.55,0,2.77-.06,3.52-.1a19.59,19.59,0,0,0,11.26,3.32A34.38,34.38,0,0,0,343,638.75a65.44,65.44,0,0,0,14.47-8.31c2.77-.35,8.48-1.14,16.78-2.62,14.56-2.58,24.61-6,30-10.3l35.56,17c2,1.72,13.58,11.52,22.73,16.24a39.45,39.45,0,0,0,17.8,4.7,24.93,24.93,0,0,0,8.75-1.49,19.2,19.2,0,0,0,11.35-11.14c.15-.38.26-.75.39-1.13,7.72-2,13.2-5.48,16.16-10.07l.06,0c.18-.24,17.57-25.06-4.11-42.29-16-12.73-45.64-8.48-59.2-5.63,12.72-20.44,17.38-40.54,20.29-60.81,18.09-9,45.48-24.55,65.73-40.13,10-7.71,21.88-21,30.93-34.74,7.91-12,17.5-29.94,18.27-47.44C589.48,388.28,585.56,378.17,577.27,370.54ZM302.4,339.09a26.76,26.76,0,0,1,11.92,7c-.3.84-.62,1.76-1,2.76a32.1,32.1,0,0,0-7.42-4.53,26.24,26.24,0,0,0-6-1.95C300.62,341.31,301.45,340.23,302.4,339.09Zm-.91,60c-5.27,1.3-15.07,1.95-28.55-4.7-21.36-10.52-30.34-41.7-30.34-41.7l-1.27,6.79c-12-5.48-13.91-18.77-14-19.38l-.13-1.07-12.37-10.18-.2-.15c-1.2-.82-4.4-3.59-4.76-6.42a4.53,4.53,0,0,1,1.29-3.62c1.47-1.69,13.48,2.57,21.81,8.11l.6-5-4.3-13.2-.34-.39c-1.34-1.58-3.94-5.69-3.44-8.33a3.24,3.24,0,0,1,1.95-2.33,3.87,3.87,0,0,1,3.16-.22c5.74,1.78,14.81,15.13,16.82,19.05l2.51-4.32c-.05-.49-1.34-12.05-2.35-17.93-.68-4-.25-7.77,1.07-9.46a2.27,2.27,0,0,1,1.74-.95h.11c2.87,0,7.57,9.79,9.7,18.57a29.58,29.58,0,0,0-1.59,9.4l-2.22,3.31c-8.88,2.48-12.14,10.74-12.62,14.91,0,0,6.57-8.1,14.87-9.88l1.07-.23,4.36-6.53,0-.88c-.09-2.39.41-9.28,3.78-12.37a7,7,0,0,1,5.94-1.58c2.24.27,2.93,1.18,3.26,1.84,1.78,3.63-1.76,12.6-4.85,17.8l-.66,1.15.46,1.22c.14.36,3.2,8.8-3.68,19.42L264,344.51c13.09,4.07,28.14,5.4,36.11,18.11a49.44,49.44,0,0,0-4.67-7.35c.94-1.77,2.5-4.21,3.3-5.51.28-.44.54-.89.81-1.34a27,27,0,0,1,11.74,6.86A266.49,266.49,0,0,0,301.49,399.07Zm250.9,3.7c-.4,3.66-.87,7.51-1.42,11.5-4.5-.16-8.45-.19-14.93-.19.4-4.2.68-8,.91-11.6C542.36,402.49,547.53,402.59,552.39,402.77Zm-15.14-5.52c.21-3.72.37-7.21.57-10.65,5.35,0,10.83,0,16,.07-.25,3.34-.56,7-.94,10.9C548,397.4,542.75,397.28,537.25,397.25Zm12.87,22.95q-.78,5.25-1.76,10.75c-4.39-.06-9.16-.08-14.35,0,.24-1.68.47-3.4.71-5.2s.48-3.82.68-5.64C540.54,420.08,545.5,420.11,550.12,420.2Zm-2.73,16c-.61,3.14-1.26,6.31-2,9.51-4.47-.08-9.06-.07-13.74,0,.54-3,1.06-6.2,1.58-9.61C538.36,436,543.06,436.06,547.39,436.18Zm-3.24,15.07c-.8,3.35-1.65,6.72-2.58,10.09a7.28,7.28,0,0,0-1.26-.12c-3.67,0-7.62.09-11.77.24.71-3.22,1.39-6.46,2.05-9.86C535.27,451.39,539.81,451.26,544.15,451.25Zm-12.38-54c-5,0-10.14.14-15.41.34.28-4.13.55-7.75.83-10.74,4.47-.1,9.69-.18,15.23-.21C532.25,389.86,532,393.42,531.77,397.24Zm-.39,5.27c-.3,3.69-.64,7.56-1,11.57h-5.27c-3.64,0-6.93.08-9.91.23.32-4,.6-7.83.84-11.36C521.26,402.71,526.4,402.57,531.38,402.51Zm-1.71,17.66c-.41,3.56-.87,7.21-1.38,10.9-4.65.12-9.58.33-14.8.66.43-3.83.81-7.57,1.13-11.17C519.69,420.37,524.74,420.25,529.67,420.17Zm-2.14,16.1q-.74,4.8-1.59,9.63-7.07.27-14.41.83c.49-3.26.94-6.49,1.33-9.66Q520.62,436.5,527.53,436.27Zm-50.46,51.24,1.44-.17c-.46,1.81-1,3.72-1.6,6C477,491.27,477,489.34,477.07,487.51Zm0-5.2c0-3.21-.11-5.94-.21-8.14l4.39-.6c-.55,3.36-1,6-1.53,8.43Zm9.8-9.54,14-2c-.78,3.26-1.6,6.52-2.48,9.75-4.33.23-8.76.52-13.05.89C485.88,479,486.35,476.26,486.9,472.77Zm19.42-30a13,13,0,0,0-.74-5.11l1.74-.16c-.27,1.76-.56,3.54-.85,5.32Zm-.49-39.23,5.56-.36c-.31,3.55-.68,7.39-1.11,11.45a88.11,88.11,0,0,0-10.74,1.5A73.93,73.93,0,0,0,505.83,403.55Zm-13.6,22.11c1.25-1.33,2.41-2.7,3.5-4.1,4.55-.32,9.19-.58,13.85-.79-.43,3.65-.92,7.44-1.47,11.34-3.05.24-6.2.52-9.43.84a8.61,8.61,0,0,0-2-5.5A6.25,6.25,0,0,0,492.23,425.66Zm1,8.89-.5.19a20.83,20.83,0,0,0-3.06-3.23,6.25,6.25,0,0,1,3.06-.37A5.44,5.44,0,0,1,493.24,434.55Zm6.88,4.38c.77.86.88,2.78.71,4.51a18.63,18.63,0,0,0-3,1.58,37,37,0,0,0-2.14-5.55C497.8,438.78,499.67,438.55,500.12,438.93Zm7,31c4.74-.63,9.43-1.21,14-1.7-1,3.94-2.15,7.81-3.37,11.56l-.65,0c-3.71.1-8.06.23-12.69.42Q505.86,475.17,507.08,470Zm1.63-7.36c.62-3,1.17-6,1.69-9,.09-.22.16-.44.23-.66,4.78-.42,9.53-.79,14.18-1.07q-1,4.93-2.11,9.81C518.17,461.94,513.48,462.24,508.71,462.61Zm3.13-64.83-4.09.24a91.45,91.45,0,0,0,2.64-11l2.18-.08C512.4,390,512.17,393.6,511.84,397.78Zm-53.67-23.65c8.31-5.85,21.34-16.63,29.67-31.39l1.27,1c-1.51,3.45-10.14,21.5-28.77,32.43C459.59,375.5,458.87,374.81,458.17,374.13Zm6.72,60.23-4.35.46c-4-26.44,11.22-47.22,11.39-47.45l-.07-.05.77-1.08c-2.52-1.79-4.9-3.65-7.15-5.52,15.14-9.35,23.74-22.66,27.55-29.85,9.77,12.5,12.73,22.17,13.19,23.89-.06,3.49-1.33,35.22-24.38,53.07l-6.55,3.48c.59.09,13.91,2.27,17.86,17.35l-1.75,6.6c4.39-4,11.54-8.61,14.07-6.59-.31,1.77-.64,3.56-1,5.35a39.3,39.3,0,0,1-6.72,7.16c-7.35,6.33-11.13,4.05-11.56,3.76l-.89-.88-1.42.29a22,22,0,0,1-17-4.51C456.37,451.18,464.57,434.91,464.89,434.36ZM354.51,625.88c-.23.18-23.19,18.42-34.94,5.68-3.3-3.59-4.74-7.25-4.29-10.89.94-7.42,8.93-13.55,8.93-13.55-.43.27-13.35,1.6-14.3,12.83A18.71,18.71,0,0,0,313.76,633c-7.09-.13-18.84-2.15-22.51-13.67-3.51-11,4.56-21.51,4.56-21.51a17.11,17.11,0,0,0-11.64,15.32c-2.42-4.84-4.11-10.77-2.5-16.56,2.58-9.29,13.05-16.34,31.13-21,20.2-5.17,40.73,3.7,48.62,7.75l14,7.85C351.68,568.51,340,524,336.05,505.65c8.91,5.66,20,9.27,33,10.69a120,120,0,0,0,13.13.69c2.95,0,5.76-.09,8.41-.25.26,11.06,1.85,56.7,10.2,96.55C391.52,621,365.28,625.12,354.51,625.88Zm89.07-34h0c.11,0,15.43-4.23,28.49-5.31,11.8-1,27.88-.54,37.47,7.08,8.2,6.52,9.56,14.35,8.61,20.94-4.23-12.66-16.76-17.8-17.38-18,0,0,12.64,11,13.31,25.63.39,8.17-5.5,9.92-12.07,11.63a18.49,18.49,0,0,0-1.78-7.07c-5.61-11.85-22.23-17.19-22.94-17.41,0,0,13.46,10,18,19.74,1.74,3.68,1.75,7.53.05,11.77a13.73,13.73,0,0,1-8.21,8.09c-6,2.23-14.26,1.12-22.17-3-9.26-4.77-21.82-15.64-21.94-15.75l-.28-.24-36.62-17.5c-8.71-41.64-7.78-89.22-7.59-96.36a116.35,116.35,0,0,0,12.39-2,309.71,309.71,0,0,1-37.09-1.9c-26.79-2.95-48-16.28-55.12-37.37,14,3.8,37.69,7.89,67.6,7.89a342,342,0,0,0,85-10.85c.88,14.75,2.38,78.58-32.9,123.93ZM583.51,400.37c-1.23,27.93-28.63,63.92-47.09,78.12-17.06,13.12-41,27.28-59.58,36.9,1.66-6.48,3.16-13,4.19-16.71,1.43-5.07,2.4-8.54,3.21-11.92,4.13-.36,8.44-.63,12.69-.83q-1.38,4.71-2.92,9.31s5.9-1.08,8.23-8.08c.16-.49.31-1,.47-1.47,4.73-.17,9.23-.28,13.12-.38-.4,1.12-.82,2.24-1.25,3.33a12.1,12.1,0,0,0,5.71-3.45c2-.05,3.84-.11,5.64-.18a7.83,7.83,0,0,0-2.66-4,22.87,22.87,0,0,0,1.9-5.2c.68-2.8,1.32-5.49,2-8.14,4.5-.42,8.83-.72,12.9-.87q-.94,3.24-2,6.45s2.86-1.22,6.11-6.54c1.3,0,2.56,0,3.8,0a10.77,10.77,0,0,0-2.14-3.1A59.81,59.81,0,0,0,550,451.31q3.8.07,7.31.3s0-4.72-6.13-5.65c.7-3.36,1.3-6.53,1.83-9.58,4.36.2,8.25.49,11.64.81,0,0-.76-6-9.42-6.13L554,431c.58-3.68,1.08-7.21,1.56-10.7,5.2.15,9.87.38,13.77.68q-.88,5.12-1.92,10.21s5.36-5.57,7.11-9.72c1,.12,2,.24,2.82.38,0,0,0-1.47-2.14-3.09q1.17-7.12,2-14.23l1.85.23a8.79,8.79,0,0,0-1.56-2.59l0-.21c.44-3.82-4.27-11.86-4.27-11.86-.24,2.92-.53,5.85-.85,8.78a14.28,14.28,0,0,0-3.47-.61c-3.18-.18-6.63-.36-10.28-.52.5-4.37.75-8,.79-11,5.25.09,10.06.23,14,.43,0,0-2.27-4.78-10.61-5.11l-3.46-.13c-.74-10.58-4.64-9.72-4.64-9.72-.09,2.58-.24,5.79-.48,9.53-5.72-.21-11.18-.39-16.2-.54-.43-8-5.06-8.55-5.06-8.55-.05,2.16-.13,5-.27,8.39-6.31-.18-11.65-.32-15.54-.4-1.15-2.52-4.16-2.53-4.16-2.53s0,.92-.09,2.45l-1.59,0c.15-1.49.24-2.76.29-3.75a114.81,114.81,0,0,1,17.88-8.17l.09,0a55.11,55.11,0,0,1,20.76-2.91c6.63.35,16,2.16,23.29,8.83C580.65,381,584,389.72,583.51,400.37Zm-27.2,14.13c.43-3.19.88-6.4,1.39-9.71.09-.61.17-1.19.25-1.78,5.08.26,9.72.59,13.85,1q-.76,6.19-1.76,12.39a49.28,49.28,0,0,0-11.4-1.75Z"/><path class="cls-5" d="M278.33,102c0-42.64-57.45-77.2-128.31-77.2S21.71,59.33,21.71,102s57.45,77.2,128.31,77.2a209.13,209.13,0,0,0,33.25-2.62h0S206.35,198.4,223,203.74c-9.33-22.19-4.26-36.57-4.26-36.57S279.18,141.63,278.33,102Z"/><text class="cls-6" transform="translate(61.31 120.21)">TIMDEX!</text></svg>
